<svg xmlns="http://www.w3.org/2000/svg" viewBox="0 0 128 128" width="128" height="128">
  <g transform="rotate(-4, 16, 36)">
    <rect x="14" y="16" width="100" height="18" rx="5" fill="none" stroke="#000000" stroke-width="5" stroke-linejoin="round"/>
    <line x1="32" y1="16" x2="30" y2="34" stroke="#000000" stroke-width="4"/>
    <line x1="50" y1="16" x2="48" y2="34" stroke="#000000" stroke-width="4"/>
    <line x1="68" y1="16" x2="66" y2="34" stroke="#000000" stroke-width="4"/>
    <line x1="86" y1="16" x2="84" y2="34" stroke="#000000" stroke-width="4"/>
    <line x1="104" y1="16" x2="102" y2="34" stroke="#000000" stroke-width="4"/>
  </g>
  <path d="M18,36 C15.8,36 14,37.8 14,40 L14,100 Q14,108 22,104 L58,90 Q64,88 70,90 L106,104 Q114,108 114,100 L114,40 C114,37.8 112.2,36 110,36 Z"
    fill="none" stroke="#000000" stroke-width="5" stroke-linejoin="round" stroke-linecap="round"/>
  <line x1="14" y1="52" x2="114" y2="52" stroke="#000000" stroke-width="5"/>
  <circle cx="26" cy="44" r="3" fill="#000000" opacity="0.5"/>
  <circle cx="40" cy="44" r="3" fill="#000000" opacity="0.5"/>
  <circle cx="54" cy="44" r="3" fill="#000000" opacity="0.5"/>
</svg>